<svg version="1.1" xmlns="http://www.w3.org/2000/svg" xmlns:xlink="http://www.w3.org/1999/xlink" width="1032" height="1032"><defs/><g><rect fill="transparent" stroke="none" x="0" y="0" width="1032" height="1032"/><g transform="translate(16,16) scale(1,1)"><path fill="none" stroke="rgb(153,153,153)" paint-order="fill stroke markers" d=" M 0 988.1743583338541 L 125.98921591790452 867.7142783197648" stroke-opacity="1" stroke-linejoin="round" stroke-miterlimit="10" stroke-width="3"/><path fill="none" stroke="rgb(153,153,153)" paint-order="fill stroke markers" d=" M 125.98921591790452 867.7142783197648 L 238.77157487561792 711.1856367235304" stroke-opacity="1" stroke-linejoin="round" stroke-miterlimit="10" stroke-width="3"/><path fill="none" stroke="rgb(153,153,153)" paint-order="fill stroke markers" d=" M 125.98921591790452 867.7142783197648 L 249.24247571117337 1000" stroke-opacity="1" stroke-linejoin="round" stroke-miterlimit="10" stroke-width="3"/><path fill="none" stroke="rgb(153,153,153)" paint-order="fill stroke markers" d=" M 77.85161205540525 262.50790118054584 L 7.025862411005792e-15 431.1056536689942" stroke-opacity="1" stroke-linejoin="round" stroke-miterlimit="10" stroke-width="3"/><path fill="none" stroke="rgb(153,153,153)" paint-order="fill stroke markers" d=" M 77.85161205540525 262.50790118054584 L 214.10960231521386 184.8528659596417" stroke-opacity="1" stroke-linejoin="round" stroke-miterlimit="10" stroke-width="3"/><path fill="none" stroke="rgb(153,153,153)" paint-order="fill stroke markers" d=" M 214.10960231521386 184.8528659596417 L 242.72631820903803 0" stroke-opacity="1" stroke-linejoin="round" stroke-miterlimit="10" stroke-width="3"/><path fill="none" stroke="rgb(153,153,153)" paint-order="fill stroke markers" d=" M 214.10960231521386 184.8528659596417 L 308.76262595520456 349.82131768237076" stroke-opacity="1" stroke-linejoin="round" stroke-miterlimit="10" stroke-width="3"/><path fill="none" stroke="rgb(153,153,153)" paint-order="fill stroke markers" d=" M 308.76262595520456 349.82131768237076 L 450.9231836647231 329.4180689248728" stroke-opacity="1" stroke-linejoin="round" stroke-miterlimit="10" stroke-width="3"/><path fill="none" stroke="rgb(153,153,153)" paint-order="fill stroke markers" d=" M 308.76262595520456 349.82131768237076 L 259.03982469311495 530.2249119957821" stroke-opacity="1" stroke-linejoin="round" stroke-miterlimit="10" stroke-width="3"/><path fill="none" stroke="rgb(153,153,153)" paint-order="fill stroke markers" d=" M 1000 0 L 859.5003618275513 30.453265268393636" stroke-opacity="1" stroke-linejoin="round" stroke-miterlimit="10" stroke-width="3"/><path fill="none" stroke="rgb(153,153,153)" paint-order="fill stroke markers" d=" M 859.5003618275513 30.453265268393636 L 727.5058708757383 132.5112340909519" stroke-opacity="1" stroke-linejoin="round" stroke-miterlimit="10" stroke-width="3"/><path fill="none" stroke="rgb(153,153,153)" paint-order="fill stroke markers" d=" M 727.5058708757383 132.5112340909519 L 730.0936199803676 318.8236511963528" stroke-opacity="1" stroke-linejoin="round" stroke-miterlimit="10" stroke-width="3"/><path fill="none" stroke="rgb(153,153,153)" paint-order="fill stroke markers" d=" M 727.5058708757383 132.5112340909519 L 589.3554957604322 71.27367532643422" stroke-opacity="1" stroke-linejoin="round" stroke-miterlimit="10" stroke-width="3"/><path fill="rgb(153,153,153)" stroke="none" paint-order="stroke fill markers" d=" M 15 988.1743583338541 L 14.95376000599692 989.3512447697718 L 14.815325108927066 990.5208753094576 L 14.585548805965148 991.6760387916927 L 14.265847744427303 992.8096132494783 L 13.858192987669302 993.9146098193305 L 13.365097862825518 994.9842158299473 L 12.789602465311384 996.0118368045934 L 12.135254915624213 996.9911371182412 L 11.406089484000464 997.9160790588069 L 10.606601717798213 998.7809600516523 L 9.741720724952755 999.5804478178546 L 8.816778784387097 1000.3096132494783 L 7.837478470739233 1000.9639607991655 L 6.809857496093203 1001.5394561966797 L 5.740251485476348 1002.0325513215234 L 4.635254915624212 1002.4402060782814 L 3.501680457838582 1002.7599071398192 L 2.346516975603464 1002.9896834427811 L 1.176886435917675 1003.1281183398511 L 9.18485099360515e-16 1003.1743583338541 L -1.1768864359176732 1003.1281183398511 L -2.3465169756034623 1002.9896834427811 L -3.50168045783858 1002.7599071398192 L -4.63525491562421 1002.4402060782814 L -5.740251485476346 1002.0325513215234 L -6.809857496093201 1001.5394561966797 L -7.8374784707392315 1000.9639607991655 L -8.816778784387095 1000.3096132494783 L -9.741720724952753 999.5804478178546 L -10.606601717798211 998.7809600516523 L -11.406089484000463 997.9160790588069 L -12.13525491562421 996.9911371182412 L -12.789602465311383 996.0118368045934 L -13.365097862825516 994.9842158299473 L -13.858192987669302 993.9146098193305 L -14.265847744427303 992.8096132494783 L -14.585548805965148 991.6760387916927 L -14.815325108927064 990.5208753094576 L -14.95376000599692 989.3512447697718 L -15 988.1743583338541 L -14.95376000599692 986.9974718979364 L -14.815325108927066 985.8278413582507 L -14.58554880596515 984.6726778760155 L -14.265847744427305 983.53910341823 L -13.858192987669304 982.4341068483777 L -13.365097862825518 981.3645008377609 L -12.789602465311384 980.3368798631149 L -12.135254915624213 979.357579549467 L -11.406089484000466 978.4326376089014 L -10.606601717798215 977.5677566160559 L -9.741720724952762 976.7682688498537 L -8.816778784387099 976.03910341823 L -7.837478470739229 975.3847558685427 L -6.809857496093192 974.8092604710286 L -5.74025148547633 974.3161653461848 L -4.635254915624189 973.9085105894268 L -3.5016804578385514 973.588809527889 L -2.3465169756034263 973.3590332249271 L -1.1768864359176305 973.2205983278571 L 5.0535249883925967e-14 973.1743583338541 L 1.1768864359177311 973.2205983278571 L 2.346516975603526 973.3590332249271 L 3.5016804578386496 973.588809527889 L 4.635254915624285 973.9085105894268 L 5.740251485476424 974.3161653461848 L 6.809857496093282 974.8092604710287 L 7.837478470739315 975.3847558685428 L 8.81677878438718 976.03910341823 L 9.741720724952838 976.7682688498537 L 10.606601717798295 977.5677566160559 L 11.406089484000544 978.4326376089015 L 12.135254915624289 979.3575795494671 L 12.789602465311454 980.336879863115 L 13.365097862825584 981.364500837761 L 13.858192987669359 982.434106848378 L 14.26584774442735 983.5391034182301 L 14.585548805965187 984.6726778760157 L 14.815325108927093 985.8278413582508 L 14.953760005996934 986.9974718979366 Z" fill-opacity="1"/><path fill="rgb(153,153,153)" stroke="none" paint-order="stroke fill markers" d=" M 140.98921591790452 867.7142783197648 L 140.94297592390143 868.8911647556826 L 140.80454102683157 870.0607952953683 L 140.57476472386966 871.2159587776034 L 140.25506366233182 872.349533235389 L 139.84740890557381 873.4545298052412 L 139.35431378073002 874.524135815858 L 138.7788183832159 875.5517567905041 L 138.12447083352873 876.531057104152 L 137.39530540190498 877.4559990447176 L 136.59581763570273 878.320880037563 L 135.73093664285727 879.1203678037654 L 134.80599470229163 879.849533235389 L 133.82669438864374 880.5038807850763 L 132.79907341399772 881.0793761825904 L 131.72946740338085 881.5724713074342 L 130.62447083352873 881.9801260641922 L 129.4908963757431 882.29982712573 L 128.33573289350798 882.5296034286919 L 127.1661023538222 882.6680383257618 L 125.98921591790452 882.7142783197648 L 124.81232948198684 882.6680383257618 L 123.64269894230105 882.5296034286919 L 122.48753546006594 882.29982712573 L 121.3539610022803 881.9801260641922 L 120.24896443242817 881.5724713074342 L 119.17935842181132 881.0793761825904 L 118.15173744716529 880.5038807850763 L 117.17243713351742 879.849533235389 L 116.24749519295176 879.1203678037654 L 115.3826142001063 878.320880037563 L 114.58312643390406 877.4559990447176 L 113.8539610022803 876.531057104152 L 113.19961345259313 875.5517567905041 L 112.624118055079 874.524135815858 L 112.13102293023522 873.4545298052412 L 111.72336817347721 872.349533235389 L 111.40366711193937 871.2159587776034 L 111.17389080897745 870.0607952953683 L 111.0354559119076 868.8911647556826 L 110.98921591790452 867.7142783197648 L 111.0354559119076 866.5373918838471 L 111.17389080897745 865.3677613441614 L 111.40366711193937 864.2125978619263 L 111.72336817347721 863.0790234041407 L 112.13102293023522 861.9740268342885 L 112.624118055079 860.9044208236717 L 113.19961345259313 859.8767998490256 L 113.8539610022803 858.8974995353777 L 114.58312643390406 857.9725575948121 L 115.3826142001063 857.1076766019667 L 116.24749519295176 856.3081888357644 L 117.17243713351742 855.5790234041407 L 118.15173744716529 854.9246758544534 L 119.17935842181133 854.3491804569393 L 120.24896443242818 853.8560853320955 L 121.35396100228033 853.4484305753375 L 122.48753546006597 853.1287295137997 L 123.6426989423011 852.8989532108378 L 124.8123294819869 852.7605183137679 L 125.98921591790457 852.7142783197648 L 127.16610235382225 852.7605183137679 L 128.33573289350804 852.8989532108378 L 129.49089637574318 853.1287295137997 L 130.6244708335288 853.4484305753375 L 131.72946740338094 853.8560853320955 L 132.7990734139978 854.3491804569394 L 133.82669438864383 854.9246758544535 L 134.80599470229168 855.5790234041407 L 135.73093664285736 856.3081888357644 L 136.59581763570282 857.1076766019667 L 137.39530540190506 857.9725575948122 L 138.12447083352882 858.8974995353778 L 138.77881838321596 859.8767998490257 L 139.3543137807301 860.9044208236718 L 139.84740890557387 861.9740268342887 L 140.25506366233188 863.0790234041408 L 140.5747647238697 864.2125978619264 L 140.8045410268316 865.3677613441615 L 140.94297592390146 866.5373918838474 Z" fill-opacity="1"/><path fill="rgb(153,153,153)" stroke="none" paint-order="stroke fill markers" d=" M 253.77157487561792 711.1856367235304 L 253.72533488161483 712.3625231594481 L 253.58689998454497 713.5321536991338 L 253.35712368158306 714.6873171813689 L 253.03742262004522 715.8208916391545 L 252.6297678632872 716.9258882090068 L 252.13667273844342 717.9954942196235 L 251.5611773409293 719.0231151942696 L 250.90682979124213 720.0024155079175 L 250.17766435961838 720.9273574484831 L 249.37817659341613 721.7922384413285 L 248.51329560057067 722.5917262075309 L 247.588353660005 723.3208916391545 L 246.60905334635714 723.9752391888418 L 245.58143237171112 724.5507345863559 L 244.51182636109425 725.0438297111997 L 243.40682979124213 725.4514844679577 L 242.2732553334565 725.7711855294955 L 241.11809185122138 726.0009618324574 L 239.9484613115356 726.1393967295273 L 238.77157487561792 726.1856367235304 L 237.59468843970023 726.1393967295273 L 236.42505790001445 726.0009618324574 L 235.26989441777934 725.7711855294955 L 234.1363199599937 725.4514844679577 L 233.03132339014158 725.0438297111997 L 231.9617173795247 724.5507345863559 L 230.9340964048787 723.9752391888418 L 229.95479609123083 723.3208916391545 L 229.02985415066516 722.5917262075309 L 228.1649731578197 721.7922384413285 L 227.36548539161745 720.9273574484831 L 226.6363199599937 720.0024155079175 L 225.98197241030653 719.0231151942696 L 225.4064770127924 717.9954942196235 L 224.91338188794862 716.9258882090068 L 224.5057271311906 715.8208916391545 L 224.18602606965277 714.6873171813689 L 223.95624976669086 713.5321536991338 L 223.817814869621 712.3625231594481 L 223.77157487561792 711.1856367235304 L 223.817814869621 710.0087502876127 L 223.95624976669086 708.8391197479269 L 224.18602606965277 707.6839562656918 L 224.5057271311906 706.5503818079062 L 224.91338188794862 705.445385238054 L 225.4064770127924 704.3757792274372 L 225.98197241030653 703.3481582527911 L 226.6363199599937 702.3688579391433 L 227.36548539161745 701.4439159985776 L 228.1649731578197 700.5790350057322 L 229.02985415066516 699.77954723953 L 229.9547960912308 699.0503818079062 L 230.9340964048787 698.396034258219 L 231.9617173795247 697.8205388607048 L 233.03132339014158 697.327443735861 L 234.13631995999373 696.919788979103 L 235.26989441777937 696.6000879175652 L 236.42505790001448 696.3703116146033 L 237.5946884397003 696.2318767175334 L 238.77157487561797 696.1856367235304 L 239.94846131153565 696.2318767175334 L 241.11809185122144 696.3703116146033 L 242.27325533345658 696.6000879175652 L 243.4068297912422 696.919788979103 L 244.51182636109434 697.3274437358612 L 245.5814323717112 697.8205388607049 L 246.60905334635723 698.3960342582191 L 247.58835366000508 699.0503818079062 L 248.51329560057076 699.77954723953 L 249.3781765934162 700.5790350057322 L 250.17766435961846 701.4439159985777 L 250.90682979124222 702.3688579391434 L 251.56117734092936 703.3481582527912 L 252.1366727384435 704.3757792274373 L 252.62976786328727 705.4453852380542 L 253.03742262004528 706.5503818079063 L 253.3571236815831 707.6839562656919 L 253.586899984545 708.839119747927 L 253.72533488161486 710.0087502876129 Z" fill-opacity="1"/><path fill="rgb(153,153,153)" stroke="none" paint-order="stroke fill markers" d=" M 264.24247571117337 1000 L 264.1962357171703 1001.1768864359177 L 264.05780082010045 1002.3465169756034 L 263.82802451713854 1003.5016804578386 L 263.50832345560065 1004.6352549156242 L 263.1006686988427 1005.7402514854764 L 262.6075735739989 1006.8098574960932 L 262.03207817648473 1007.8374784707393 L 261.3777306267976 1008.8167787843871 L 260.64856519517383 1009.7417207249528 L 259.84907742897155 1010.6066017177982 L 258.9841964361261 1011.4060894840005 L 258.0592544955605 1012.1352549156242 L 257.0799541819126 1012.7896024653114 L 256.0523332072666 1013.3650978628256 L 254.9827271966497 1013.8581929876693 L 253.8777306267976 1014.2658477444273 L 252.74415616901194 1014.5855488059651 L 251.58899268677683 1014.815325108927 L 250.41936214709105 1014.953760005997 L 249.24247571117337 1015 L 248.0655892752557 1014.953760005997 L 246.8959587355699 1014.815325108927 L 245.7407952533348 1014.5855488059651 L 244.60722079554915 1014.2658477444273 L 243.50222422569703 1013.8581929876693 L 242.43261821508017 1013.3650978628256 L 241.40499724043414 1012.7896024653114 L 240.4256969267863 1012.1352549156242 L 239.5007549862206 1011.4060894840005 L 238.63587399337516 1010.6066017177982 L 237.8363862271729 1009.7417207249528 L 237.10722079554915 1008.8167787843871 L 236.45287324586198 1007.8374784707393 L 235.87737784834786 1006.8098574960932 L 235.38428272350407 1005.7402514854764 L 234.97662796674607 1004.6352549156242 L 234.65692690520822 1003.5016804578386 L 234.42715060224631 1002.3465169756034 L 234.28871570517646 1001.1768864359177 L 234.24247571117337 1000 L 234.28871570517646 998.8231135640823 L 234.42715060224631 997.6534830243966 L 234.65692690520822 996.4983195421614 L 234.97662796674607 995.3647450843758 L 235.38428272350407 994.2597485145236 L 235.87737784834786 993.1901425039068 L 236.45287324586198 992.1625215292607 L 237.10722079554915 991.1832212156129 L 237.8363862271729 990.2582792750472 L 238.63587399337516 989.3933982822018 L 239.5007549862206 988.5939105159996 L 240.42569692678626 987.8647450843758 L 241.40499724043414 987.2103975346886 L 242.43261821508017 986.6349021371744 L 243.50222422569703 986.1418070123307 L 244.60722079554918 985.7341522555727 L 245.74079525333482 985.4144511940349 L 246.89595873556993 985.184674891073 L 248.06558927525575 985.046239994003 L 249.24247571117343 985 L 250.4193621470911 985.046239994003 L 251.5889926867769 985.184674891073 L 252.74415616901203 985.4144511940349 L 253.87773062679764 985.7341522555727 L 254.9827271966498 986.1418070123307 L 256.05233320726666 986.6349021371745 L 257.0799541819127 987.2103975346887 L 258.05925449556054 987.8647450843758 L 258.9841964361262 988.5939105159996 L 259.84907742897167 989.3933982822018 L 260.6485651951739 990.2582792750474 L 261.37773062679764 991.183221215613 L 262.03207817648484 992.1625215292609 L 262.60757357399893 993.1901425039069 L 263.10066869884275 994.2597485145238 L 263.5083234556007 995.364745084376 L 263.82802451713854 996.4983195421615 L 264.05780082010045 997.6534830243967 L 264.1962357171703 998.8231135640825 Z" fill-opacity="1"/><path fill="rgb(153,153,153)" stroke="none" paint-order="stroke fill markers" d=" M 92.85161205540525 262.50790118054584 L 92.80537206140218 263.6847876164635 L 92.66693716433232 264.8544181561493 L 92.4371608613704 266.0095816383844 L 92.11745979983256 267.14315609617006 L 91.70980504307455 268.2481526660222 L 91.21670991823078 269.3177586766391 L 90.64121452071664 270.3453796512851 L 89.98686697102947 271.32467996493295 L 89.25770153940572 272.2496219054986 L 88.45821377320347 273.114502898344 L 87.59333278035801 273.9139906645463 L 86.66839083979235 274.64315609617006 L 85.68909052614448 275.2975036458572 L 84.66146955149846 275.87299904337135 L 83.5918635408816 276.36609416821517 L 82.48686697102947 276.7737489249731 L 81.35329251324384 277.093449986511 L 80.19812903100872 277.3232262894729 L 79.02849849132294 277.46166118654276 L 77.85161205540525 277.50790118054584 L 76.67472561948759 277.46166118654276 L 75.50509507980179 277.3232262894729 L 74.34993159756668 277.093449986511 L 73.21635713978104 276.7737489249731 L 72.1113605699289 276.36609416821517 L 71.04175455931205 275.87299904337135 L 70.01413358466603 275.2975036458572 L 69.03483327101816 274.64315609617006 L 68.1098913304525 273.9139906645463 L 67.24501033760704 273.1145028983441 L 66.4455225714048 272.2496219054986 L 65.71635713978104 271.32467996493295 L 65.06200959009388 270.3453796512851 L 64.48651419257973 269.3177586766391 L 63.99341906773596 268.2481526660222 L 63.58576431097795 267.14315609617006 L 63.26606324944011 266.0095816383844 L 63.03628694647819 264.85441815614934 L 62.897852049408336 263.6847876164635 L 62.851612055405255 262.50790118054584 L 62.897852049408336 261.3310147446282 L 63.036286946478185 260.1613842049424 L 63.26606324944011 259.00622072270727 L 63.58576431097795 257.8726462649216 L 63.99341906773595 256.7676496950695 L 64.48651419257973 255.69804368445264 L 65.06200959009387 254.67042270980662 L 65.71635713978104 253.69112239615876 L 66.4455225714048 252.7661804555931 L 67.24501033760704 251.90129946274763 L 68.1098913304525 251.10181169654538 L 69.03483327101816 250.37264626492163 L 70.01413358466603 249.71829871523445 L 71.04175455931207 249.1428033177203 L 72.11136056992892 248.64970819287655 L 73.21635713978107 248.24205343611854 L 74.34993159756671 247.9223523745807 L 75.50509507980183 247.69257607161876 L 76.67472561948762 247.55414117454893 L 77.85161205540531 247.50790118054584 L 79.02849849132299 247.55414117454893 L 80.19812903100878 247.6925760716188 L 81.3532925132439 247.9223523745807 L 82.48686697102954 248.24205343611857 L 83.59186354088168 248.64970819287657 L 84.66146955149854 249.14280331772036 L 85.68909052614457 249.7182987152345 L 86.66839083979244 250.37264626492168 L 87.5933327803581 251.10181169654544 L 88.45821377320355 251.90129946274772 L 89.2577015394058 252.76618045559317 L 89.98686697102954 253.69112239615885 L 90.64121452071672 254.67042270980673 L 91.21670991823083 255.69804368445276 L 91.70980504307461 256.7676496950696 L 92.1174597998326 257.8726462649218 L 92.43716086137044 259.00622072270744 L 92.66693716433235 260.1613842049425 L 92.80537206140218 261.33101474462836 Z" fill-opacity="1"/><path fill="rgb(153,153,153)" stroke="none" paint-order="stroke fill markers" d=" M 15.000000000000007 431.1056536689942 L 14.953760005996926 432.28254010491185 L 14.815325108927073 433.45217064459763 L 14.585548805965155 434.60733412683277 L 14.26584774442731 435.7409085846184 L 13.858192987669309 436.84590515447053 L 13.365097862825525 437.9155111650874 L 12.789602465311392 438.94313213973345 L 12.13525491562422 439.9224324533813 L 11.406089484000471 440.84737439394695 L 10.60660171779822 441.7122553867924 L 9.741720724952762 442.51174315299465 L 8.816778784387104 443.2409085846184 L 7.83747847073924 443.89525613430555 L 6.80985749609321 444.4707515318197 L 5.740251485476355 444.9638466566635 L 4.635254915624219 445.37150141342147 L 3.501680457838589 445.69120247495937 L 2.346516975603471 445.9209787779213 L 1.176886435917682 446.0594136749911 L 7.944347510366306e-15 446.1056536689942 L -1.176886435917666 446.0594136749911 L -2.346516975603455 445.9209787779213 L -3.5016804578385727 445.69120247495937 L -4.635254915624203 445.37150141342147 L -5.740251485476339 444.9638466566635 L -6.809857496093194 444.4707515318197 L -7.837478470739224 443.89525613430555 L -8.816778784387088 443.2409085846184 L -9.741720724952746 442.51174315299465 L -10.606601717798204 441.71225538679244 L -11.406089484000455 440.84737439394695 L -12.135254915624204 439.9224324533813 L -12.789602465311376 438.94313213973345 L -13.36509786282551 437.9155111650874 L -13.858192987669295 436.84590515447053 L -14.265847744427296 435.7409085846184 L -14.585548805965141 434.60733412683277 L -14.815325108927057 433.4521706445977 L -14.953760005996912 432.28254010491185 L -14.999999999999993 431.1056536689942 L -14.953760005996912 429.92876723307654 L -14.815325108927059 428.75913669339076 L -14.585548805965143 427.6039732111556 L -14.265847744427298 426.47039875337 L -13.858192987669296 425.36540218351786 L -13.365097862825511 424.295796172901 L -12.789602465311377 423.26817519825494 L -12.135254915624206 422.2888748846071 L -11.406089484000459 421.36393294404144 L -10.606601717798208 420.499051951196 L -9.741720724952755 419.69956418499373 L -8.816778784387092 418.97039875337 L -7.837478470739222 418.31605120368283 L -6.809857496093185 417.7405558061687 L -5.740251485476323 417.24746068132487 L -4.635254915624182 416.83980592456686 L -3.5016804578385443 416.520104863029 L -2.346516975603419 416.2903285600671 L -1.1768864359176234 416.1518936629973 L 5.756111229493175e-14 416.1056536689942 L 1.1768864359177382 416.1518936629973 L 2.346516975603533 416.2903285600671 L 3.5016804578386567 416.5201048630291 L 4.635254915624292 416.8398059245669 L 5.740251485476431 417.2474606813249 L 6.809857496093289 417.74055580616874 L 7.837478470739322 418.31605120368283 L 8.816778784387187 418.97039875337003 L 9.741720724952845 419.6995641849938 L 10.606601717798302 420.49905195119607 L 11.406089484000551 421.36393294404155 L 12.135254915624296 422.2888748846072 L 12.78960246531146 423.26817519825505 L 13.365097862825591 424.29579617290113 L 13.858192987669366 425.365402183518 L 14.265847744427358 426.47039875337015 L 14.585548805965194 427.6039732111558 L 14.8153251089271 428.7591366933909 L 14.95376000599694 429.9287672330767 Z" fill-opacity="1"/><path fill="rgb(153,153,153)" stroke="none" paint-order="stroke fill markers" d=" M 229.10960231521386 184.8528659596417 L 229.06336232121078 186.02975239555937 L 228.92492742414092 187.19938293524515 L 228.695151121179 188.35454641748026 L 228.37545005964117 189.4881208752659 L 227.96779530288316 190.59311744511803 L 227.47470017803937 191.6627234557349 L 226.89920478052525 192.69034443038092 L 226.24485723083808 193.6696447440288 L 225.51569179921432 194.59458668459445 L 224.71620403301208 195.4594676774399 L 223.85132304016662 196.25895544364215 L 222.92638109960097 196.9881208752659 L 221.9470807859531 197.64246842495308 L 220.91945981130706 198.2179638224672 L 219.8498538006902 198.711058947311 L 218.74485723083808 199.118713704069 L 217.61128277305244 199.43841476560684 L 216.45611929081733 199.66819106856875 L 215.28648875113154 199.8066259656386 L 214.10960231521386 199.8528659596417 L 212.93271587929618 199.8066259656386 L 211.7630853396104 199.66819106856875 L 210.6079218573753 199.43841476560684 L 209.47434739958965 199.118713704069 L 208.36935082973753 198.711058947311 L 207.29974481912066 198.2179638224672 L 206.27212384447463 197.64246842495308 L 205.29282353082678 196.9881208752659 L 204.3678815902611 196.25895544364215 L 203.50300059741565 195.4594676774399 L 202.7035128312134 194.59458668459445 L 201.97434739958965 193.6696447440288 L 201.31999984990247 192.69034443038092 L 200.74450445238836 191.6627234557349 L 200.25140932754456 190.59311744511803 L 199.84375457078656 189.4881208752659 L 199.52405350924872 188.35454641748026 L 199.2942772062868 187.19938293524515 L 199.15584230921695 186.02975239555937 L 199.10960231521386 184.8528659596417 L 199.15584230921695 183.675979523724 L 199.2942772062868 182.50634898403823 L 199.52405350924872 181.35118550180312 L 199.84375457078656 180.21761104401747 L 200.25140932754456 179.11261447416535 L 200.74450445238836 178.0430084635485 L 201.31999984990247 177.01538748890246 L 201.97434739958965 176.0360871752546 L 202.7035128312134 175.11114523468893 L 203.50300059741565 174.24626424184348 L 204.3678815902611 173.44677647564123 L 205.29282353082675 172.71761104401747 L 206.27212384447463 172.0632634943303 L 207.29974481912066 171.48776809681615 L 208.36935082973753 170.9946729719724 L 209.47434739958967 170.58701821521439 L 210.60792185737532 170.26731715367654 L 211.76308533961043 170.0375408507146 L 212.93271587929624 169.89910595364478 L 214.10960231521392 169.8528659596417 L 215.2864887511316 169.89910595364478 L 216.45611929081738 170.03754085071463 L 217.61128277305252 170.26731715367654 L 218.74485723083814 170.5870182152144 L 219.84985380069028 170.99467297197242 L 220.91945981130715 171.4877680968162 L 221.94708078595318 172.06326349433036 L 222.92638109960103 172.71761104401753 L 223.8513230401667 173.4467764756413 L 224.71620403301216 174.24626424184356 L 225.5156917992144 175.11114523468902 L 226.24485723083816 176.0360871752547 L 226.8992047805253 177.01538748890258 L 227.47470017803946 178.0430084635486 L 227.96779530288322 179.11261447416547 L 228.37545005964122 180.21761104401762 L 228.69515112117904 181.35118550180326 L 228.92492742414095 182.5063489840384 L 229.0633623212108 183.67597952372418 Z" fill-opacity="1"/><path fill="rgb(153,153,153)" stroke="none" paint-order="stroke fill markers" d=" M 257.726318209038 0 L 257.68007821503494 1.176886435917674 L 257.5416433179651 2.346516975603463 L 257.3118670150032 3.5016804578385807 L 256.9921659534653 4.635254915624211 L 256.58451119670735 5.740251485476347 L 256.09141607186353 6.809857496093201 L 255.51592067434942 7.8374784707392315 L 254.86157312466224 8.816778784387097 L 254.1324076930385 9.741720724952755 L 253.33291992683624 10.606601717798211 L 252.46803893399078 11.406089484000464 L 251.54309699342514 12.135254915624213 L 250.56379667977725 12.789602465311383 L 249.53617570513123 13.365097862825516 L 248.46656969451436 13.858192987669302 L 247.36157312466224 14.265847744427303 L 246.2279986668766 14.585548805965148 L 245.0728351846415 14.815325108927066 L 243.9032046449557 14.95376000599692 L 242.72631820903803 15 L 241.54943177312035 14.95376000599692 L 240.37980123343456 14.815325108927066 L 239.22463775119945 14.58554880596515 L 238.0910632934138 14.265847744427305 L 236.9860667235617 13.858192987669302 L 235.91646071294483 13.365097862825518 L 234.8888397382988 12.789602465311384 L 233.90953942465094 12.135254915624213 L 232.98459748408527 11.406089484000466 L 232.1197164912398 10.606601717798213 L 231.32022872503757 9.741720724952756 L 230.5910632934138 8.816778784387099 L 229.93671574372664 7.837478470739233 L 229.36122034621252 6.809857496093203 L 228.86812522136873 5.740251485476349 L 228.46047046461072 4.635254915624213 L 228.14076940307288 3.501680457838583 L 227.91099310011097 2.3465169756034645 L 227.77255820304111 1.176886435917676 L 227.72631820903803 1.83697019872103e-15 L 227.77255820304111 -1.1768864359176723 L 227.91099310011097 -2.346516975603461 L 228.14076940307288 -3.5016804578385794 L 228.46047046461072 -4.635254915624209 L 228.86812522136873 -5.740251485476345 L 229.36122034621252 -6.8098574960932 L 229.93671574372664 -7.837478470739231 L 230.5910632934138 -8.816778784387095 L 231.32022872503757 -9.741720724952753 L 232.1197164912398 -10.606601717798211 L 232.98459748408527 -11.406089484000459 L 233.90953942465092 -12.13525491562421 L 234.8888397382988 -12.789602465311386 L 235.91646071294483 -13.365097862825523 L 236.9860667235617 -13.858192987669307 L 238.09106329341384 -14.265847744427312 L 239.22463775119948 -14.585548805965157 L 240.3798012334346 -14.815325108927071 L 241.5494317731204 -14.953760005996923 L 242.72631820903808 -15 L 243.90320464495576 -14.953760005996914 L 245.07283518464155 -14.815325108927057 L 246.2279986668767 -14.585548805965134 L 247.3615731246623 -14.26584774442728 L 248.46656969451445 -13.85819298766927 L 249.5361757051313 -13.365097862825477 L 250.56379667977734 -12.789602465311333 L 251.5430969934252 -12.13525491562415 L 252.46803893399087 -11.406089484000393 L 253.33291992683633 -10.60660171779813 L 254.13240769303857 -9.741720724952662 L 254.86157312466233 -8.816778784386992 L 255.51592067434947 -7.837478470739117 L 256.0914160718636 -6.809857496093075 L 256.5845111967074 -5.740251485476208 L 256.99216595346536 -4.6352549156240626 L 257.3118670150032 -3.5016804578384226 L 257.5416433179651 -2.3465169756032958 L 257.68007821503494 -1.1768864359174984 Z" fill-opacity="1"/><path fill="rgb(153,153,153)" stroke="none" paint-order="stroke fill markers" d=" M 323.76262595520456 349.82131768237076 L 323.71638596120147 350.9982041182884 L 323.57795106413164 352.1678346579742 L 323.34817476116973 353.32299814020934 L 323.02847369963183 354.456572597995 L 322.6208189428739 355.5615691678471 L 322.12772381803006 356.631175178464 L 321.5522284205159 357.65879615311 L 320.89788087082877 358.6380964667579 L 320.168715439205 359.5630384073235 L 319.3692276730028 360.42791940016895 L 318.5043466801573 361.2274071663712 L 317.57940473959167 361.956572597995 L 316.6001044259438 362.6109201476821 L 315.5724834512978 363.18641554519627 L 314.5028774406809 363.6795106700401 L 313.39788087082877 364.08716542679804 L 312.26430641304313 364.40686648833594 L 311.10914293080805 364.63664279129785 L 309.9395123911222 364.7750776883677 L 308.76262595520456 364.82131768237076 L 307.5857395192869 364.7750776883677 L 306.4161089796011 364.63664279129785 L 305.260945497366 364.40686648833594 L 304.12737103958034 364.08716542679804 L 303.0223744697282 363.6795106700401 L 301.9527684591113 363.18641554519627 L 300.9251474844653 362.6109201476821 L 299.94584717081744 361.956572597995 L 299.0209052302518 361.2274071663712 L 298.15602423740637 360.427919400169 L 297.3565364712041 359.5630384073235 L 296.62737103958034 358.6380964667579 L 295.9730234898932 357.65879615311 L 295.39752809237905 356.631175178464 L 294.90443296753523 355.5615691678471 L 294.4967782107773 354.456572597995 L 294.1770771492394 353.32299814020934 L 293.94730084627747 352.16783465797425 L 293.80886594920764 350.9982041182884 L 293.76262595520456 349.82131768237076 L 293.80886594920764 348.6444312464531 L 293.94730084627747 347.4748007067673 L 294.1770771492394 346.3196372245322 L 294.4967782107773 345.18606276674655 L 294.90443296753523 344.0810661968944 L 295.39752809237905 343.0114601862776 L 295.9730234898932 341.9838392116315 L 296.62737103958034 341.00453889798365 L 297.3565364712041 340.079596957418 L 298.1560242374063 339.2147159645726 L 299.0209052302518 338.4152281983703 L 299.94584717081744 337.68606276674655 L 300.9251474844653 337.0317152170594 L 301.9527684591114 336.45621981954525 L 303.0223744697282 335.96312469470143 L 304.12737103958034 335.5554699379434 L 305.260945497366 335.2357688764056 L 306.4161089796011 335.0059925734437 L 307.5857395192869 334.86755767637385 L 308.7626259552046 334.82131768237076 L 309.93951239112226 334.86755767637385 L 311.1091429308081 335.0059925734437 L 312.2643064130432 335.23576887640564 L 313.3978808708288 335.5554699379435 L 314.502877440681 335.9631246947015 L 315.57248345129784 336.4562198195453 L 316.60010442594387 337.0317152170594 L 317.5794047395917 337.6860627667466 L 318.50434668015737 338.41522819837036 L 319.36922767300285 339.21471596457263 L 320.1687154392051 340.0795969574181 L 320.8978808708288 341.00453889798376 L 321.55222842051603 341.9838392116316 L 322.1277238180301 343.0114601862777 L 322.62081894287394 344.08106619689454 L 323.0284736996319 345.1860627667467 L 323.34817476116973 346.31963722453236 L 323.57795106413164 347.47480070676744 L 323.71638596120147 348.6444312464533 Z" fill-opacity="1"/><path fill="rgb(153,153,153)" stroke="none" paint-order="stroke fill markers" d=" M 465.9231836647231 329.4180689248728 L 465.87694367072004 330.59495536079044 L 465.7385087736502 331.7645859004762 L 465.5087324706883 332.91974938271136 L 465.1890314091504 334.053323840497 L 464.78137665239245 335.1583204103491 L 464.28828152754863 336.227926420966 L 463.7127861300345 337.25554739561204 L 463.05843858034734 338.2348477092599 L 462.3292731487236 339.15978964982554 L 461.52978538252137 340.02467064267097 L 460.6649043896759 340.82415840887325 L 459.73996244911024 341.553323840497 L 458.7606621354624 342.20767139018415 L 457.73304116081636 342.7831667876983 L 456.66343515019946 343.2762619125421 L 455.55843858034734 343.68391666930006 L 454.4248641225617 344.00361773083796 L 453.2697006403266 344.23339403379987 L 452.1000701006408 344.3718289308697 L 450.9231836647231 344.4180689248728 L 449.7462972288055 344.3718289308697 L 448.5766666891197 344.23339403379987 L 447.42150320688455 344.00361773083796 L 446.2879287490989 343.68391666930006 L 445.1829321792468 343.2762619125421 L 444.1133261686299 342.7831667876983 L 443.08570519398387 342.20767139018415 L 442.106404880336 341.553323840497 L 441.18146293977037 340.82415840887325 L 440.31658194692494 340.024670642671 L 439.51709418072267 339.15978964982554 L 438.7879287490989 338.2348477092599 L 438.13358119941176 337.25554739561204 L 437.5580858018976 336.227926420966 L 437.0649906770538 335.1583204103491 L 436.65733592029585 334.053323840497 L 436.33763485875795 332.91974938271136 L 436.10785855579604 331.7645859004763 L 435.9694236587262 330.59495536079044 L 435.9231836647231 329.4180689248728 L 435.9694236587262 328.24118248895513 L 436.10785855579604 327.07155194926935 L 436.33763485875795 325.9163884670342 L 436.65733592029585 324.78281400924857 L 437.0649906770538 323.67781743939645 L 437.5580858018976 322.6082114287796 L 438.13358119941176 321.5805904541335 L 438.7879287490989 320.6012901404857 L 439.51709418072267 319.67634819992 L 440.3165819469249 318.8114672070746 L 441.18146293977037 318.0119794408723 L 442.106404880336 317.28281400924857 L 443.08570519398387 316.6284664595614 L 444.11332616862995 316.0529710620473 L 445.1829321792468 315.55987593720346 L 446.2879287490989 315.15222118044545 L 447.42150320688455 314.8325201189076 L 448.5766666891197 314.6027438159457 L 449.7462972288055 314.4643089188759 L 450.9231836647232 314.4180689248728 L 452.10007010064083 314.4643089188759 L 453.2697006403267 314.6027438159457 L 454.42486412256176 314.83252011890767 L 455.5584385803474 315.1522211804455 L 456.6634351501996 315.5598759372035 L 457.7330411608164 316.05297106204733 L 458.76066213546244 316.6284664595614 L 459.7399624491103 317.2828140092486 L 460.66490438967594 318.0119794408724 L 461.5297853825214 318.81146720707466 L 462.32927314872364 319.67634819992014 L 463.0584385803474 320.6012901404858 L 463.7127861300346 321.58059045413364 L 464.2882815275487 322.6082114287797 L 464.7813766523925 323.67781743939656 L 465.18903140915046 324.78281400924874 L 465.5087324706883 325.9163884670344 L 465.7385087736502 327.07155194926946 L 465.87694367072004 328.2411824889553 Z" fill-opacity="1"/><path fill="rgb(153,153,153)" stroke="none" paint-order="stroke fill markers" d=" M 274.03982469311495 530.2249119957821 L 273.99358469911186 531.4017984316998 L 273.85514980204204 532.5714289713856 L 273.6253734990801 533.7265924536207 L 273.3056724375422 534.8601669114063 L 272.8980176807843 535.9651634812585 L 272.40492255594046 537.0347694918753 L 271.8294271584263 538.0623904665214 L 271.17507960873917 539.0416907801692 L 270.4459141771154 539.9666327207349 L 269.64642641091314 540.8315137135803 L 268.7815454180677 541.6310014797826 L 267.85660347750206 542.3601669114063 L 266.8773031638542 543.0145144610935 L 265.8496821892082 543.5900098586077 L 264.7800761785913 544.0831049834514 L 263.67507960873917 544.4907597402095 L 262.5415051509535 544.8104608017472 L 261.3863416687184 545.0402371047091 L 260.2167111290326 545.1786720017791 L 259.03982469311495 545.2249119957821 L 257.8629382571973 545.1786720017791 L 256.6933077175115 545.0402371047091 L 255.53814423527638 544.8104608017472 L 254.40456977749074 544.4907597402095 L 253.29957320763862 544.0831049834514 L 252.22996719702175 543.5900098586077 L 251.20234622237572 543.0145144610935 L 250.22304590872787 542.3601669114063 L 249.2981039681622 541.6310014797826 L 248.43322297531674 540.8315137135803 L 247.6337352091145 539.9666327207349 L 246.90456977749074 539.0416907801692 L 246.25022222780356 538.0623904665214 L 245.67472683028944 537.0347694918753 L 245.18163170544565 535.9651634812585 L 244.77397694868765 534.8601669114063 L 244.4542758871498 533.7265924536207 L 244.2244995841879 532.5714289713856 L 244.08606468711804 531.4017984316998 L 244.03982469311495 530.2249119957821 L 244.08606468711804 529.0480255598644 L 244.2244995841879 527.8783950201787 L 244.4542758871498 526.7232315379435 L 244.77397694868765 525.589657080158 L 245.18163170544565 524.4846605103057 L 245.67472683028944 523.415054499689 L 246.25022222780356 522.3874335250429 L 246.90456977749074 521.408133211395 L 247.6337352091145 520.4831912708294 L 248.43322297531674 519.6183102779839 L 249.2981039681622 518.8188225117817 L 250.22304590872784 518.089657080158 L 251.20234622237572 517.4353095304707 L 252.22996719702175 516.8598141329566 L 253.29957320763862 516.3667190081128 L 254.40456977749076 515.9590642513548 L 255.5381442352764 515.639363189817 L 256.6933077175115 515.4095868868551 L 257.8629382571973 515.2711519897852 L 259.039824693115 515.2249119957821 L 260.21671112903266 515.2711519897852 L 261.3863416687185 515.4095868868551 L 262.5415051509536 515.639363189817 L 263.6750796087392 515.9590642513548 L 264.7800761785914 516.3667190081128 L 265.84968218920824 516.8598141329567 L 266.87730316385426 517.4353095304708 L 267.8566034775021 518.089657080158 L 268.78154541806776 518.8188225117817 L 269.64642641091325 519.6183102779839 L 270.44591417711547 520.4831912708295 L 271.1750796087392 521.4081332113951 L 271.8294271584264 522.387433525043 L 272.4049225559405 523.4150544996891 L 272.89801768078433 524.484660510306 L 273.3056724375423 525.5896570801581 L 273.6253734990801 526.7232315379437 L 273.85514980204204 527.8783950201788 L 273.99358469911186 529.0480255598646 Z" fill-opacity="1"/><path fill="rgb(153,153,153)" stroke="none" paint-order="stroke fill markers" d=" M 1015 0 L 1014.953760005997 1.176886435917674 L 1014.815325108927 2.346516975603463 L 1014.5855488059651 3.5016804578385807 L 1014.2658477444273 4.635254915624211 L 1013.8581929876693 5.740251485476347 L 1013.3650978628256 6.809857496093201 L 1012.7896024653114 7.8374784707392315 L 1012.1352549156242 8.816778784387097 L 1011.4060894840005 9.741720724952755 L 1010.6066017177982 10.606601717798211 L 1009.7417207249528 11.406089484000464 L 1008.8167787843871 12.135254915624213 L 1007.8374784707393 12.789602465311383 L 1006.8098574960932 13.365097862825516 L 1005.7402514854764 13.858192987669302 L 1004.6352549156242 14.265847744427303 L 1003.5016804578386 14.585548805965148 L 1002.3465169756034 14.815325108927066 L 1001.1768864359177 14.95376000599692 L 1000 15 L 998.8231135640823 14.95376000599692 L 997.6534830243966 14.815325108927066 L 996.4983195421614 14.58554880596515 L 995.3647450843758 14.265847744427305 L 994.2597485145236 13.858192987669302 L 993.1901425039068 13.365097862825518 L 992.1625215292607 12.789602465311384 L 991.1832212156129 12.135254915624213 L 990.2582792750472 11.406089484000466 L 989.3933982822018 10.606601717798213 L 988.5939105159995 9.741720724952756 L 987.8647450843758 8.816778784387099 L 987.2103975346886 7.837478470739233 L 986.6349021371744 6.809857496093203 L 986.1418070123307 5.740251485476349 L 985.7341522555727 4.635254915624213 L 985.4144511940349 3.501680457838583 L 985.184674891073 2.3465169756034645 L 985.046239994003 1.176886435917676 L 985 1.83697019872103e-15 L 985.046239994003 -1.1768864359176723 L 985.184674891073 -2.346516975603461 L 985.4144511940349 -3.5016804578385794 L 985.7341522555727 -4.635254915624209 L 986.1418070123307 -5.740251485476345 L 986.6349021371744 -6.8098574960932 L 987.2103975346886 -7.837478470739231 L 987.8647450843758 -8.816778784387095 L 988.5939105159995 -9.741720724952753 L 989.3933982822018 -10.606601717798211 L 990.2582792750472 -11.406089484000459 L 991.1832212156129 -12.13525491562421 L 992.1625215292607 -12.789602465311386 L 993.1901425039068 -13.365097862825523 L 994.2597485145237 -13.858192987669307 L 995.3647450843758 -14.265847744427312 L 996.4983195421614 -14.585548805965157 L 997.6534830243966 -14.815325108927071 L 998.8231135640824 -14.953760005996923 L 1000 -15 L 1001.1768864359177 -14.953760005996914 L 1002.3465169756035 -14.815325108927057 L 1003.5016804578387 -14.585548805965134 L 1004.6352549156243 -14.26584774442728 L 1005.7402514854764 -13.85819298766927 L 1006.8098574960933 -13.365097862825477 L 1007.8374784707394 -12.789602465311333 L 1008.8167787843872 -12.13525491562415 L 1009.7417207249529 -11.406089484000393 L 1010.6066017177983 -10.60660171779813 L 1011.4060894840005 -9.741720724952662 L 1012.1352549156243 -8.816778784386992 L 1012.7896024653114 -7.837478470739117 L 1013.3650978628256 -6.809857496093075 L 1013.8581929876693 -5.740251485476208 L 1014.2658477444273 -4.6352549156240626 L 1014.5855488059652 -3.5016804578384226 L 1014.8153251089271 -2.3465169756032958 L 1014.953760005997 -1.1768864359174984 Z" fill-opacity="1"/><path fill="rgb(153,153,153)" stroke="none" paint-order="stroke fill markers" d=" M 874.5003618275513 30.453265268393636 L 874.4541218335482 31.63015170431131 L 874.3156869364783 32.7997822439971 L 874.0859106335164 33.95494572623222 L 873.7662095719786 35.088520184017845 L 873.3585548152206 36.193516753869986 L 872.8654596903768 37.26312276448684 L 872.2899642928627 38.290743739132864 L 871.6356167431754 39.27004405278073 L 870.9064513115518 40.19498599334639 L 870.1069635453495 41.05986698619185 L 869.242082552504 41.8593547523941 L 868.3171406119384 42.58852018401785 L 867.3378402982905 43.24286773370502 L 866.3102193236444 43.81836313121915 L 865.2406133130277 44.311458256062934 L 864.1356167431754 44.71911301282094 L 863.0020422853898 45.03881407435878 L 861.8468788031547 45.268590377320706 L 860.677248263469 45.407025274390556 L 859.5003618275513 45.453265268393636 L 858.3234753916336 45.407025274390556 L 857.1538448519478 45.268590377320706 L 855.9986813697127 45.03881407435878 L 854.8651069119271 44.71911301282094 L 853.7601103420749 44.311458256062934 L 852.6905043314581 43.81836313121916 L 851.662883356812 43.24286773370502 L 850.6835830431642 42.58852018401785 L 849.7586411025985 41.859354752394104 L 848.8937601097531 41.05986698619185 L 848.0942723435508 40.19498599334639 L 847.3651069119271 39.27004405278073 L 846.7107593622399 38.29074373913287 L 846.1352639647257 37.26312276448684 L 845.642168839882 36.193516753869986 L 845.2345140831239 35.08852018401785 L 844.9148130215862 33.95494572623222 L 844.6850367186242 32.7997822439971 L 844.5466018215543 31.630151704311313 L 844.5003618275513 30.45326526839364 L 844.5466018215543 29.276378832475963 L 844.6850367186242 28.106748292790176 L 844.9148130215862 26.951584810555058 L 845.2345140831239 25.818010352769427 L 845.642168839882 24.71301378291729 L 846.1352639647257 23.643407772300435 L 846.7107593622399 22.615786797654405 L 847.3651069119271 21.63648648400654 L 848.0942723435508 20.711544543440883 L 848.8937601097531 19.846663550595423 L 849.7586411025985 19.047175784393175 L 850.6835830431642 18.318010352769427 L 851.662883356812 17.66366280308225 L 852.6905043314581 17.088167405568115 L 853.760110342075 16.59507228072433 L 854.8651069119271 16.187417523966324 L 855.9986813697127 15.86771646242848 L 857.1538448519478 15.637940159466565 L 858.3234753916337 15.499505262396713 L 859.5003618275513 15.453265268393636 L 860.677248263469 15.499505262396722 L 861.8468788031548 15.637940159466579 L 863.00204228539 15.867716462428502 L 864.1356167431755 16.187417523966356 L 865.2406133130277 16.595072280724366 L 866.3102193236446 17.088167405568157 L 867.3378402982906 17.663662803082303 L 868.3171406119385 18.318010352769484 L 869.2420825525041 19.047175784393243 L 870.1069635453496 19.84666355059551 L 870.9064513115518 20.711544543440972 L 871.6356167431755 21.636486484006646 L 872.2899642928627 22.61578679765452 L 872.8654596903768 23.643407772300563 L 873.3585548152206 24.71301378291743 L 873.7662095719786 25.818010352769573 L 874.0859106335165 26.951584810555214 L 874.3156869364784 28.10674829279034 L 874.4541218335482 29.276378832476137 Z" fill-opacity="1"/><path fill="rgb(153,153,153)" stroke="none" paint-order="stroke fill markers" d=" M 742.5058708757383 132.5112340909519 L 742.4596308817353 133.68812052686957 L 742.3211959846653 134.85775106655535 L 742.0914196817034 136.01291454879046 L 741.7717186201656 137.1464890065761 L 741.3640638634076 138.25148557642822 L 740.8709687385639 139.3210915870451 L 740.2954733410497 140.34871256169112 L 739.6411257913625 141.32801287533897 L 738.9119603597388 142.25295481590464 L 738.1124725935365 143.1178358087501 L 737.2475916006911 143.91732357495235 L 736.3226496601254 144.6464890065761 L 735.3433493464776 145.30083655626328 L 734.3157283718315 145.8763319537774 L 733.2461223612147 146.3694270786212 L 732.1411257913625 146.7770818353792 L 731.0075513335769 147.09678289691703 L 729.8523878513417 147.32655919987894 L 728.682757311656 147.4649940969488 L 727.5058708757383 147.5112340909519 L 726.3289844398206 147.4649940969488 L 725.1593539001349 147.32655919987894 L 724.0041904178997 147.09678289691703 L 722.8706159601142 146.7770818353792 L 721.7656193902619 146.3694270786212 L 720.6960133796451 145.8763319537774 L 719.668392404999 145.30083655626328 L 718.6890920913512 144.6464890065761 L 717.7641501507856 143.91732357495235 L 716.8992691579401 143.1178358087501 L 716.0997813917378 142.25295481590464 L 715.3706159601142 141.328012875339 L 714.7162684104269 140.34871256169112 L 714.1407730129127 139.3210915870451 L 713.647677888069 138.25148557642822 L 713.240023131311 137.1464890065761 L 712.9203220697732 136.01291454879046 L 712.6905457668113 134.85775106655535 L 712.5521108697413 133.68812052686957 L 712.5058708757383 132.5112340909519 L 712.5521108697413 131.3343476550342 L 712.6905457668113 130.16471711534842 L 712.9203220697732 129.0095536331133 L 713.240023131311 127.87597917532767 L 713.647677888069 126.77098260547554 L 714.1407730129127 125.70137659485869 L 714.7162684104269 124.67375562021266 L 715.3706159601142 123.69445530656479 L 716.0997813917378 122.76951336599913 L 716.8992691579401 121.90463237315367 L 717.7641501507856 121.10514460695143 L 718.6890920913512 120.37597917532767 L 719.668392404999 119.7216316256405 L 720.6960133796451 119.14613622812637 L 721.765619390262 118.65304110328258 L 722.8706159601142 118.24538634652458 L 724.0041904178997 117.92568528498673 L 725.1593539001349 117.69590898202482 L 726.3289844398207 117.55747408495496 L 727.5058708757383 117.51123409095189 L 728.682757311656 117.55747408495498 L 729.8523878513419 117.69590898202483 L 731.007551333577 117.92568528498676 L 732.1411257913626 118.24538634652461 L 733.2461223612147 118.65304110328262 L 734.3157283718316 119.14613622812641 L 735.3433493464777 119.72163162564055 L 736.3226496601255 120.37597917532774 L 737.2475916006912 121.1051446069515 L 738.1124725935366 121.90463237315376 L 738.9119603597388 122.76951336599923 L 739.6411257913626 123.69445530656489 L 740.2954733410497 124.67375562021277 L 740.8709687385639 125.70137659485881 L 741.3640638634076 126.77098260547568 L 741.7717186201656 127.87597917532783 L 742.0914196817035 129.00955363311346 L 742.3211959846655 130.1647171153486 L 742.4596308817353 131.33434765503438 Z" fill-opacity="1"/><path fill="rgb(153,153,153)" stroke="none" paint-order="stroke fill markers" d=" M 745.0936199803676 318.8236511963528 L 745.0473799863646 320.00053763227044 L 744.9089450892947 321.1701681719562 L 744.6791687863328 322.32533165419136 L 744.359467724795 323.458906111977 L 743.951812968037 324.5639026818291 L 743.4587178431932 325.63350869244596 L 742.883222445679 326.66112966709204 L 742.2288748959918 327.6404299807399 L 741.4997094643682 328.56537192130554 L 740.7002216981658 329.43025291415097 L 739.8353407053204 330.22974068035325 L 738.9103987647547 330.958906111977 L 737.9310984511069 331.61325366166415 L 736.9034774764608 332.1887490591783 L 735.833871465844 332.6818441840221 L 734.7288748959918 333.08949894078006 L 733.5953004382062 333.40920000231796 L 732.4401369559711 333.63897630527987 L 731.2705064162853 333.7774112023497 L 730.0936199803676 333.8236511963528 L 728.9167335444499 333.7774112023497 L 727.7471030047642 333.63897630527987 L 726.5919395225291 333.40920000231796 L 725.4583650647435 333.0894989407801 L 724.3533684948912 332.6818441840221 L 723.2837624842745 332.1887490591783 L 722.2561415096284 331.61325366166415 L 721.2768411959805 330.958906111977 L 720.3518992554149 330.22974068035325 L 719.4870182625694 329.43025291415097 L 718.6875304963671 328.56537192130554 L 717.9583650647435 327.6404299807399 L 717.3040175150562 326.66112966709204 L 716.7285221175421 325.633508692446 L 716.2354269926983 324.5639026818291 L 715.8277722359403 323.458906111977 L 715.5080711744025 322.32533165419136 L 715.2782948714406 321.1701681719563 L 715.1398599743707 320.00053763227044 L 715.0936199803676 318.8236511963528 L 715.1398599743707 317.64676476043513 L 715.2782948714406 316.47713422074935 L 715.5080711744025 315.3219707385142 L 715.8277722359403 314.18839628072857 L 716.2354269926983 313.08339971087645 L 716.7285221175421 312.0137937002596 L 717.3040175150562 310.9861727256135 L 717.9583650647435 310.0068724119657 L 718.6875304963671 309.0819304714 L 719.4870182625694 308.2170494785546 L 720.3518992554149 307.4175617123523 L 721.2768411959805 306.68839628072857 L 722.2561415096284 306.0340487310414 L 723.2837624842745 305.4585533335273 L 724.3533684948914 304.96545820868346 L 725.4583650647435 304.55780345192545 L 726.5919395225291 304.2381023903876 L 727.7471030047642 304.0083260874257 L 728.91673354445 303.8698911903559 L 730.0936199803676 303.8236511963528 L 731.2705064162853 303.8698911903559 L 732.4401369559712 304.0083260874257 L 733.5953004382063 304.23810239038767 L 734.7288748959919 304.5578034519255 L 735.833871465844 304.9654582086835 L 736.9034774764609 305.45855333352733 L 737.931098451107 306.0340487310415 L 738.9103987647549 306.6883962807286 L 739.8353407053205 307.4175617123524 L 740.7002216981659 308.21704947855466 L 741.4997094643682 309.08193047140014 L 742.2288748959919 310.0068724119658 L 742.883222445679 310.98617272561364 L 743.4587178431932 312.0137937002597 L 743.951812968037 313.08339971087656 L 744.359467724795 314.18839628072874 L 744.6791687863329 315.3219707385144 L 744.9089450892948 316.47713422074946 L 745.0473799863646 317.6467647604353 Z" fill-opacity="1"/><path fill="rgb(153,153,153)" stroke="none" paint-order="stroke fill markers" d=" M 604.3554957604322 71.27367532643422 L 604.3092557664291 72.4505617623519 L 604.1708208693592 73.62019230203768 L 603.9410445663973 74.77535578427279 L 603.6213435048595 75.90893024205843 L 603.2136887481015 77.01392681191057 L 602.7205936232577 78.08353282252742 L 602.1450982257436 79.11115379717344 L 601.4907506760563 80.09045411082131 L 600.7615852444327 81.01539605138697 L 599.9620974782304 81.88027704423243 L 599.0972164853849 82.67976481043468 L 598.1722745448193 83.40893024205843 L 597.1929742311714 84.0632777917456 L 596.1653532565253 84.63877318925974 L 595.0957472459086 85.13186831410351 L 593.9907506760563 85.53952307086152 L 592.8571762182708 85.85922413239936 L 591.7020127360356 86.08900043536129 L 590.5323821963499 86.22743533243113 L 589.3554957604322 86.27367532643422 L 588.1786093245145 86.22743533243113 L 587.0089787848287 86.08900043536129 L 585.8538153025936 85.85922413239936 L 584.720240844808 85.53952307086152 L 583.6152442749558 85.13186831410351 L 582.545638264339 84.63877318925974 L 581.5180172896929 84.0632777917456 L 580.5387169760451 83.40893024205843 L 579.6137750354794 82.67976481043468 L 578.748894042634 81.88027704423243 L 577.9494062764317 81.01539605138697 L 577.220240844808 80.09045411082131 L 576.5658932951208 79.11115379717344 L 575.9903978976066 78.08353282252742 L 575.4973027727629 77.01392681191057 L 575.0896480160048 75.90893024205843 L 574.7699469544671 74.7753557842728 L 574.5401706515052 73.62019230203768 L 574.4017357544352 72.4505617623519 L 574.3554957604322 71.27367532643422 L 574.4017357544352 70.09678889051655 L 574.5401706515052 68.92715835083075 L 574.7699469544671 67.77199486859564 L 575.0896480160048 66.63842041081 L 575.4973027727629 65.53342384095787 L 575.9903978976066 64.46381783034101 L 576.5658932951208 63.43619685569499 L 577.220240844808 62.45689654204712 L 577.9494062764317 61.53195460148146 L 578.748894042634 60.667073608636 L 579.6137750354794 59.867585842433755 L 580.5387169760451 59.138420410810006 L 581.5180172896929 58.484072861122826 L 582.545638264339 57.908577463608694 L 583.6152442749559 57.41548233876491 L 584.720240844808 57.007827582006904 L 585.8538153025936 56.688126520469055 L 587.0089787848287 56.458350217507146 L 588.1786093245146 56.31991532043729 L 589.3554957604322 56.273675326434216 L 590.5323821963499 56.3199153204373 L 591.7020127360357 56.45835021750716 L 592.8571762182709 56.68812652046908 L 593.9907506760565 57.00782758200694 L 595.0957472459086 57.415482338764946 L 596.1653532565255 57.90857746360874 L 597.1929742311715 58.48407286112288 L 598.1722745448194 59.13842041081006 L 599.097216485385 59.867585842433826 L 599.9620974782305 60.66707360863609 L 600.7615852444327 61.53195460148155 L 601.4907506760565 62.456896542047225 L 602.1450982257436 63.4361968556951 L 602.7205936232577 64.46381783034114 L 603.2136887481015 65.53342384095801 L 603.6213435048595 66.63842041081016 L 603.9410445663974 67.7719948685958 L 604.1708208693593 68.92715835083092 L 604.3092557664291 70.09678889051672 Z" fill-opacity="1"/><path fill="rgb(153,153,153)" stroke="none" paint-order="stroke fill markers" d=" M 402.67478780688236 711.1856367235304 L 402.6285478128793 712.3625231594481 L 402.49011291580945 713.5321536991338 L 402.26033661284754 714.6873171813689 L 401.94063555130964 715.8208916391545 L 401.5329807945517 716.9258882090068 L 401.03988566970787 717.9954942196235 L 400.4643902721937 719.0231151942696 L 399.8100427225066 720.0024155079175 L 399.0808772908828 720.9273574484831 L 398.28138952468055 721.7922384413285 L 397.4165085318351 722.5917262075309 L 396.4915665912695 723.3208916391545 L 395.5122662776216 723.9752391888418 L 394.4846453029756 724.5507345863559 L 393.4150392923587 725.0438297111997 L 392.3100427225066 725.4514844679577 L 391.17646826472094 725.7711855294955 L 390.0213047824858 726.0009618324574 L 388.8516742428 726.1393967295273 L 387.67478780688236 726.1856367235304 L 386.4979013709647 726.1393967295273 L 385.3282708312789 726.0009618324574 L 384.1731073490438 725.7711855294955 L 383.03953289125815 725.4514844679577 L 381.93453632140603 725.0438297111997 L 380.8649303107892 724.5507345863559 L 379.8373093361431 723.9752391888418 L 378.85800902249525 723.3208916391545 L 377.9330670819296 722.5917262075309 L 377.0681860890842 721.7922384413285 L 376.2686983228819 720.9273574484831 L 375.53953289125815 720.0024155079175 L 374.885185341571 719.0231151942696 L 374.30968994405686 717.9954942196235 L 373.81659481921304 716.9258882090068 L 373.4089400624551 715.8208916391545 L 373.0892390009172 714.6873171813689 L 372.8594626979553 713.5321536991338 L 372.72102780088545 712.3625231594481 L 372.67478780688236 711.1856367235304 L 372.72102780088545 710.0087502876127 L 372.8594626979553 708.8391197479269 L 373.0892390009172 707.6839562656918 L 373.40894006245503 706.5503818079062 L 373.81659481921304 705.445385238054 L 374.30968994405686 704.3757792274372 L 374.885185341571 703.3481582527911 L 375.53953289125815 702.3688579391433 L 376.2686983228819 701.4439159985776 L 377.0681860890841 700.5790350057322 L 377.9330670819296 699.77954723953 L 378.85800902249525 699.0503818079062 L 379.8373093361431 698.396034258219 L 380.8649303107892 697.8205388607048 L 381.93453632140603 697.327443735861 L 383.03953289125815 696.919788979103 L 384.1731073490438 696.6000879175652 L 385.3282708312789 696.3703116146033 L 386.4979013709647 696.2318767175334 L 387.6747878068824 696.1856367235304 L 388.8516742428001 696.2318767175334 L 390.0213047824859 696.3703116146033 L 391.176468264721 696.6000879175652 L 392.31004272250664 696.919788979103 L 393.4150392923588 697.3274437358612 L 394.48464530297565 697.8205388607049 L 395.5122662776217 698.3960342582191 L 396.49156659126953 699.0503818079062 L 397.4165085318352 699.77954723953 L 398.28138952468066 700.5790350057322 L 399.0808772908829 701.4439159985777 L 399.81004272250664 702.3688579391434 L 400.46439027219384 703.3481582527912 L 401.0398856697079 704.3757792274373 L 401.53298079455175 705.4453852380542 L 401.9406355513097 706.5503818079063 L 402.26033661284754 707.6839562656919 L 402.49011291580945 708.839119747927 L 402.6285478128793 710.0087502876129 Z" fill-opacity="1"/><g transform="scale(1,1) translate(-16,-16)"/></g></g></svg>